<svg xmlns="http://www.w3.org/2000/svg" xmlns:xlink="http://www.w3.org/1999/xlink" width="570" zoomAndPan="magnify" viewBox="0 0 427.5 424.499987" height="566" preserveAspectRatio="xMidYMid meet" version="1.0"><defs><clipPath id="adb3566a39"><path d="M 75.714844 75 L 334.460938 75 L 334.460938 348.746094 L 75.714844 348.746094 Z M 75.714844 75 " clip-rule="nonzero"/></clipPath><clipPath id="76c4552349"><path d="M 263 128 L 352 128 L 352 150 L 263 150 Z M 263 128 " clip-rule="nonzero"/></clipPath><clipPath id="8f55dc1459"><path d="M 351.894531 148.453125 L 263.410156 150.179688 L 263.003906 129.183594 L 351.484375 127.457031 Z M 351.894531 148.453125 " clip-rule="nonzero"/></clipPath><clipPath id="16452f9e5e"><path d="M 351.894531 148.453125 L 263.410156 150.179688 L 263.003906 129.183594 L 351.484375 127.457031 Z M 351.894531 148.453125 " clip-rule="nonzero"/></clipPath><clipPath id="f3d7e4ea62"><path d="M 351.894531 148.453125 L 263.410156 150.179688 L 263.003906 129.183594 L 351.484375 127.457031 Z M 351.894531 148.453125 " clip-rule="nonzero"/></clipPath><clipPath id="74aac522fa"><path d="M 77 302 L 147 302 L 147 328 L 77 328 Z M 77 302 " clip-rule="nonzero"/></clipPath><clipPath id="60508190ba"><path d="M 75.714844 303.769531 L 146.921875 301.308594 L 147.777344 326.042969 L 76.570312 328.503906 Z M 75.714844 303.769531 " clip-rule="nonzero"/></clipPath><clipPath id="5d27457e07"><path d="M 75.714844 303.769531 L 146.921875 301.308594 L 147.777344 326.042969 L 76.570312 328.503906 Z M 75.714844 303.769531 " clip-rule="nonzero"/></clipPath><clipPath id="f540ed33c9"><path d="M 75.714844 303.769531 L 146.921875 301.308594 L 147.777344 326.042969 L 76.570312 328.503906 Z M 75.714844 303.769531 " clip-rule="nonzero"/></clipPath></defs><g clip-path="url(#adb3566a39)"><path fill="#feda17" d="M 205.058594 348.582031 C 133.9375 348.582031 75.714844 290.34375 75.714844 219.199219 L 75.714844 204.546875 C 75.714844 133.402344 133.9375 75.164062 205.058594 75.164062 C 276.183594 75.164062 334.40625 133.402344 334.40625 204.546875 L 334.40625 219.199219 C 334.460938 290.34375 276.238281 348.582031 205.058594 348.582031 Z M 205.058594 348.582031 " fill-opacity="1" fill-rule="nonzero"/></g><g clip-path="url(#76c4552349)"><g clip-path="url(#8f55dc1459)"><g clip-path="url(#16452f9e5e)"><g clip-path="url(#f3d7e4ea62)"><path fill="#100f0d" d="M 274.957031 147.820312 C 276.941406 149.730469 280.097656 149.667969 282.007812 147.683594 L 288.054688 141.398438 L 294.34375 147.441406 C 296.328125 149.351562 299.484375 149.289062 301.394531 147.304688 L 307.449219 141.011719 L 313.742188 147.0625 C 315.730469 148.972656 318.882812 148.914062 320.792969 146.925781 L 326.839844 140.640625 L 333.125 146.6875 C 335.113281 148.597656 338.269531 148.535156 340.179688 146.550781 L 349.679688 136.675781 C 351.585938 134.695312 351.523438 131.535156 349.542969 129.628906 C 347.554688 127.71875 344.398438 127.78125 342.492188 129.769531 L 336.445312 136.046875 L 330.160156 130.007812 C 329.210938 129.089844 327.925781 128.59375 326.605469 128.617188 C 325.28125 128.644531 324.023438 129.191406 323.105469 130.144531 L 317.0625 136.425781 L 310.777344 130.386719 C 309.820312 129.46875 308.527344 128.96875 307.203125 128.996094 C 305.878906 129.019531 304.625 129.570312 303.707031 130.523438 L 297.664062 136.804688 L 291.378906 130.765625 C 290.425781 129.84375 289.140625 129.347656 287.820312 129.375 C 286.496094 129.398438 285.238281 129.945312 284.324219 130.902344 L 278.277344 137.183594 L 271.992188 131.140625 C 271 130.1875 269.714844 129.726562 268.4375 129.75 C 267.164062 129.777344 265.898438 130.285156 264.941406 131.277344 C 263.035156 133.261719 263.097656 136.417969 265.078125 138.324219 L 274.957031 147.820312 " fill-opacity="1" fill-rule="nonzero"/></g></g></g></g><g clip-path="url(#74aac522fa)"><g clip-path="url(#60508190ba)"><g clip-path="url(#5d27457e07)"><g clip-path="url(#f540ed33c9)"><path fill="#100f0d" d="M 135.839844 304.0625 L 128.808594 311.703125 L 121.269531 304.566406 C 120.125 303.480469 118.597656 302.902344 117.035156 302.957031 C 115.472656 303.011719 113.996094 303.695312 112.933594 304.855469 L 105.902344 312.496094 L 98.363281 305.359375 C 97.21875 304.273438 95.675781 303.695312 94.113281 303.75 C 92.550781 303.804688 91.074219 304.488281 90.007812 305.648438 L 78.960938 317.660156 C 76.742188 320.074219 76.871094 323.855469 79.253906 326.113281 C 80.445312 327.242188 81.972656 327.773438 83.480469 327.71875 C 84.988281 327.667969 86.472656 327.03125 87.585938 325.824219 L 94.625 318.171875 L 102.175781 325.320312 C 103.320312 326.402344 104.839844 326.980469 106.402344 326.925781 C 107.964844 326.871094 109.441406 326.191406 110.507812 325.03125 L 117.539062 317.386719 L 125.082031 324.527344 C 127.464844 326.78125 131.195312 326.652344 133.414062 324.238281 L 144.460938 312.226562 C 146.679688 309.8125 146.550781 306.027344 144.167969 303.773438 C 141.789062 301.519531 138.058594 301.648438 135.839844 304.0625 " fill-opacity="1" fill-rule="nonzero"/></g></g></g></g></svg>